# WaveFront *.obj file (generated by Autodesk ATF)

mtllib empty house model.mtl

g empty house model

v 5.000000 21.000000 40.000000
v 22.000000 21.000000 40.000000
v 22.000000 21.000000 43.000000
v 5.000000 21.000000 43.000000
v 5.000000 8.000000 40.000000
v 5.000000 8.000000 43.000000
v 22.000000 8.000000 40.000000
v 22.000000 8.000000 43.000000
v 83.000000 41.000001 20.000000
v 83.000000 25.000000 -3.000000
v -3.000000 25.000000 -3.000000
v -3.000000 41.000001 20.000000
v 83.000000 25.000000 43.000000
v -3.000000 25.000000 43.000000
v 83.000000 39.172749 20.000000
v 83.000000 25.000000 40.373326
v -3.000000 25.000000 40.373326
v -3.000000 39.172749 20.000000
v 83.000000 25.000000 -0.373326
v -3.000000 25.000000 -0.373326
v 80.000000 25.000000 40.000000
v 0.000000 25.000000 40.000000
v 0.000000 25.000000 0.000000
v 80.000000 25.000000 0.000000
v 46.000001 21.000000 0.000000
v 37.000001 21.000000 0.000000
v 37.000001 21.000000 -3.000000
v 46.000001 21.000000 -3.000000
v 46.000001 0.000000 0.000000
v 46.000001 0.000000 -3.000000
v 37.000001 0.000000 0.000000
v 37.000001 0.000000 -3.000000
v 80.000000 0.000000 0.000000
v 0.000000 0.000000 0.000000
v 22.000000 8.000000 0.000000
v 5.000000 8.000000 0.000000
v 5.000000 21.000000 0.000000
v 22.000000 21.000000 0.000000
v 58.000001 8.000000 0.000000
v 58.000001 21.000000 0.000000
v 75.000001 21.000000 0.000000
v 75.000001 8.000000 0.000000
v 75.000001 21.000000 -3.000000
v 75.000001 8.000000 -3.000000
v 58.000001 8.000000 -3.000000
v 58.000001 21.000000 -3.000000
v 5.000000 21.000000 -3.000000
v 22.000000 21.000000 -3.000000
v 22.000000 8.000000 -3.000000
v 5.000000 8.000000 -3.000000
v 0.000000 0.000000 40.000000
v 80.000000 0.000000 40.000000
v -3.000000 -1.000000 -3.000000
v 83.000000 -1.000000 -3.000000
v 83.000000 -1.000000 43.000000
v -3.000000 -1.000000 43.000000
vt -0.000000 0.300000 0.000000
vt -1.700000 0.300000 0.000000
vt -0.000000 0.000000 0.000000
vt -1.700000 0.000000 0.000000
vt -0.000000 0.300000 0.000000
vt -1.300000 0.300000 0.000000
vt -0.000000 0.000000 0.000000
vt -1.300000 0.000000 0.000000
vt -0.000000 0.300000 0.000000
vt -1.700000 0.300000 0.000000
vt 0.000000 0.000000 0.000000
vt -1.700000 0.000000 0.000000
vt -0.000000 0.300000 0.000000
vt -1.300000 0.300000 0.000000
vt 0.000000 0.000000 0.000000
vt -1.300000 0.000000 0.000000
vt 0.000000 0.000000 0.000000
vt 2.801785 0.000000 0.000000
vt -0.000000 8.600000 0.000000
vt 2.801785 8.600000 0.000000
vt 0.000000 0.000000 0.000000
vt 2.801785 0.000000 0.000000
vt 0.000000 8.600000 0.000000
vt 2.801785 8.600000 0.000000
vt 0.000000 0.000000 0.000000
vt 2.481812 0.000000 0.000000
vt 0.000000 8.600000 0.000000
vt 2.481812 8.600000 0.000000
vt -0.000000 -0.000000 0.000000
vt 2.481812 0.000000 0.000000
vt -0.000000 8.600000 0.000000
vt 2.481812 8.600000 0.000000
vt -2.037333 -4.300000 0.000000
vt -2.000000 4.000000 0.000000
vt -2.037333 4.300000 0.000000
vt 2.000000 4.000000 0.000000
vt 2.037333 4.300000 0.000000
vt 2.037333 -4.300000 0.000000
vt 2.000000 -4.000000 0.000000
vt -2.000000 -4.000000 0.000000
vt -0.000000 0.300000 0.000000
vt -0.900000 0.300000 0.000000
vt -0.000000 0.000000 0.000000
vt -0.900000 -0.000000 0.000000
vt -0.000000 0.300000 0.000000
vt -2.100000 0.300000 0.000000
vt -0.000000 0.000000 0.000000
vt -2.100000 0.000000 0.000000
vt 0.000000 0.300000 0.000000
vt -2.100000 0.300000 0.000000
vt 0.000000 0.000000 0.000000
vt -2.100000 0.000000 0.000000
vt 0.000000 0.000000 0.000000
vt 3.700000 0.000000 0.000000
vt 2.200000 0.800000 0.000000
vt 3.700000 2.100000 0.000000
vt 2.200000 2.100000 0.000000
vt 0.000000 2.500000 0.000000
vt 0.500000 2.100000 0.000000
vt 0.500000 0.800000 0.000000
vt 8.000000 2.500000 0.000000
vt 4.600000 2.100000 0.000000
vt 5.800000 2.100000 0.000000
vt 5.800000 0.800000 0.000000
vt 4.600000 0.000000 0.000000
vt 8.000000 0.000000 0.000000
vt 7.500000 0.800000 0.000000
vt 7.500000 2.100000 0.000000
vt -0.000000 0.300000 0.000000
vt -1.300000 0.300000 0.000000
vt -0.000000 0.000000 0.000000
vt -1.300000 0.000000 0.000000
vt 0.000000 0.300000 0.000000
vt -1.700000 0.300000 0.000000
vt -0.000000 0.000000 0.000000
vt -1.700000 0.000000 0.000000
vt -0.000000 0.300000 0.000000
vt -1.300000 0.300000 0.000000
vt -0.000000 0.000000 0.000000
vt -1.300000 0.000000 0.000000
vt -0.000000 0.300000 0.000000
vt -1.700000 0.300000 0.000000
vt -0.000000 0.000000 0.000000
vt -1.700000 -0.000000 0.000000
vt -0.000000 0.300000 0.000000
vt -1.700000 0.300000 0.000000
vt -0.000000 0.000000 0.000000
vt -1.700000 0.000000 0.000000
vt -0.000000 0.300000 0.000000
vt -1.300000 0.300000 0.000000
vt -0.000000 0.000000 0.000000
vt -1.300000 0.000000 0.000000
vt 0.000000 0.300000 0.000000
vt -1.700000 0.300000 0.000000
vt -0.000000 0.000000 0.000000
vt -1.700000 -0.000000 0.000000
vt 0.000000 0.300000 0.000000
vt -1.300000 0.300000 0.000000
vt 0.000000 0.000000 0.000000
vt -1.300000 0.000000 0.000000
vt -4.000000 2.000000 0.000000
vt -4.000000 -2.000000 0.000000
vt -0.300000 2.000000 0.000000
vt 4.000000 -2.000000 0.000000
vt 0.600000 2.000000 0.000000
vt 4.000000 2.000000 0.000000
vt 0.600000 2.300000 0.000000
vt -0.300000 2.300000 0.000000
vt 2.300000 4.300000 0.000000
vt -2.300000 4.300000 0.000000
vt 2.300000 -4.300000 0.000000
vt -2.300000 -4.300000 0.000000
vt 0.000000 0.000000 0.000000
vt 4.000000 0.000000 0.000000
vt 0.000000 2.500000 0.000000
vt 4.000000 2.500000 0.000000
vt 0.000000 0.000000 0.000000
vt 4.000000 0.000000 0.000000
vt 0.000000 2.500000 0.000000
vt 4.000000 2.500000 0.000000
vt 5.800000 0.800000 0.000000
vt 8.000000 0.000000 0.000000
vt 7.500000 0.800000 0.000000
vt 8.000000 2.500000 0.000000
vt 7.500000 2.100000 0.000000
vt 5.800000 2.100000 0.000000
vt 0.000000 2.500000 0.000000
vt 0.000000 0.000000 0.000000
vt 0.262667 2.500000 0.000000
vt 4.600000 -0.100000 0.000000
vt 4.337333 2.500000 0.000000
vt 4.600000 2.500000 0.000000
vt 2.300000 4.100000 0.000000
vt 2.300000 3.917275 0.000000
vt -0.000000 2.500000 0.000000
vt 0.000000 -0.100000 0.000000
vt 0.800000 0.800000 0.000000
vt 0.000000 -0.100000 0.000000
vt 2.500000 0.800000 0.000000
vt 8.600000 -0.100000 0.000000
vt 8.600000 2.500000 0.000000
vt 0.000000 2.500000 0.000000
vt 0.800000 2.100000 0.000000
vt 2.500000 2.100000 0.000000
vt 2.300000 4.100000 0.000000
vt 0.000000 2.500000 0.000000
vt 0.262667 2.500000 0.000000
vt 0.000000 -0.100000 0.000000
vt 4.600000 -0.100000 0.000000
vt 4.337333 2.500000 0.000000
vt 4.600000 2.500000 0.000000
vt 2.300000 3.917275 0.000000
vt 3.700000 0.000000 0.000000
vt 0.000000 -0.100000 0.000000
vt 4.600000 0.000000 0.000000
vt 8.600000 -0.100000 0.000000
vt 6.100000 0.800000 0.000000
vt 7.800000 0.800000 0.000000
vt 8.600000 2.500000 0.000000
vt 7.800000 2.100000 0.000000
vt 6.100000 2.100000 0.000000
vt 4.600000 2.100000 0.000000
vt 2.500000 0.800000 0.000000
vt 3.700000 2.100000 0.000000
vt 2.500000 2.100000 0.000000
vt 0.000000 2.500000 0.000000
vt 0.800000 2.100000 0.000000
vt 0.800000 0.800000 0.000000
vn 0.000000 -0.100000 0.000000
vn 0.000000 -0.100000 0.000000
vn 0.000000 -0.100000 0.000000
vn 0.000000 -0.100000 0.000000
vn 0.100000 0.000000 0.000000
vn 0.100000 0.000000 0.000000
vn 0.100000 0.000000 0.000000
vn 0.100000 0.000000 0.000000
vn -0.000000 0.100000 -0.000000
vn -0.000000 0.100000 -0.000000
vn -0.000000 0.100000 -0.000000
vn -0.000000 0.100000 -0.000000
vn -0.100000 0.000000 -0.000000
vn -0.100000 0.000000 -0.000000
vn -0.100000 0.000000 -0.000000
vn -0.100000 0.000000 -0.000000
vn 0.000000 0.082091 -0.057106
vn 0.000000 0.082091 -0.057106
vn 0.000000 0.082091 -0.057106
vn 0.000000 0.082091 -0.057106
vn 0.000000 0.082091 0.057106
vn 0.000000 0.082091 0.057106
vn 0.000000 0.082091 0.057106
vn 0.000000 0.082091 0.057106
vn 0.000000 -0.082091 -0.057106
vn 0.000000 -0.082091 -0.057106
vn 0.000000 -0.082091 -0.057106
vn 0.000000 -0.082091 -0.057106
vn 0.000000 -0.082091 0.057106
vn 0.000000 -0.082091 0.057106
vn 0.000000 -0.082091 0.057106
vn 0.000000 -0.082091 0.057106
vn 0.000000 0.100000 0.000000
vn 0.000000 0.100000 0.000000
vn 0.000000 0.100000 0.000000
vn 0.000000 0.100000 0.000000
vn 0.000000 0.100000 0.000000
vn 0.000000 0.100000 0.000000
vn 0.000000 0.100000 0.000000
vn 0.000000 0.100000 0.000000
vn 0.000000 -0.100000 0.000000
vn 0.000000 -0.100000 0.000000
vn 0.000000 -0.100000 0.000000
vn 0.000000 -0.100000 0.000000
vn -0.100000 0.000000 -0.000000
vn -0.100000 0.000000 -0.000000
vn -0.100000 0.000000 -0.000000
vn -0.100000 0.000000 -0.000000
vn 0.100000 0.000000 0.000000
vn 0.100000 0.000000 0.000000
vn 0.100000 0.000000 0.000000
vn 0.100000 0.000000 0.000000
vn 0.000000 0.000000 0.100000
vn 0.000000 0.000000 0.100000
vn 0.000000 0.000000 0.100000
vn 0.000000 0.000000 0.100000
vn 0.000000 0.000000 0.100000
vn 0.000000 0.000000 0.100000
vn 0.000000 0.000000 0.100000
vn 0.000000 0.000000 0.100000
vn 0.000000 0.000000 0.100000
vn 0.000000 0.000000 0.100000
vn 0.000000 0.000000 0.100000
vn 0.000000 0.000000 0.100000
vn 0.000000 0.000000 0.100000
vn 0.000000 0.000000 0.100000
vn 0.000000 0.000000 0.100000
vn 0.000000 0.000000 0.100000
vn -0.100000 0.000000 0.000000
vn -0.100000 0.000000 0.000000
vn -0.100000 0.000000 0.000000
vn -0.100000 0.000000 0.000000
vn -0.000000 0.100000 -0.000000
vn -0.000000 0.100000 -0.000000
vn -0.000000 0.100000 -0.000000
vn -0.000000 0.100000 -0.000000
vn 0.100000 0.000000 0.000000
vn 0.100000 0.000000 0.000000
vn 0.100000 0.000000 0.000000
vn 0.100000 0.000000 0.000000
vn 0.000000 -0.100000 0.000000
vn 0.000000 -0.100000 0.000000
vn 0.000000 -0.100000 0.000000
vn 0.000000 -0.100000 0.000000
vn 0.000000 -0.100000 0.000000
vn 0.000000 -0.100000 0.000000
vn 0.000000 -0.100000 0.000000
vn 0.000000 -0.100000 0.000000
vn -0.100000 0.000000 -0.000000
vn -0.100000 0.000000 -0.000000
vn -0.100000 0.000000 -0.000000
vn -0.100000 0.000000 -0.000000
vn -0.000000 0.100000 -0.000000
vn -0.000000 0.100000 -0.000000
vn -0.000000 0.100000 -0.000000
vn -0.000000 0.100000 -0.000000
vn 0.100000 0.000000 0.000000
vn 0.100000 0.000000 0.000000
vn 0.100000 0.000000 0.000000
vn 0.100000 0.000000 0.000000
vn 0.000000 0.100000 0.000000
vn 0.000000 0.100000 0.000000
vn 0.000000 0.100000 0.000000
vn 0.000000 0.100000 0.000000
vn 0.000000 0.100000 0.000000
vn 0.000000 0.100000 0.000000
vn 0.000000 0.100000 0.000000
vn 0.000000 0.100000 0.000000
vn 0.000000 -0.100000 0.000000
vn 0.000000 -0.100000 0.000000
vn 0.000000 -0.100000 0.000000
vn 0.000000 -0.100000 0.000000
vn -0.100000 0.000000 0.000000
vn -0.100000 0.000000 0.000000
vn -0.100000 0.000000 0.000000
vn -0.100000 0.000000 0.000000
vn 0.100000 -0.000000 0.000000
vn 0.100000 -0.000000 0.000000
vn 0.100000 -0.000000 0.000000
vn 0.100000 -0.000000 0.000000
vn 0.000000 0.000000 -0.100000
vn 0.000000 0.000000 -0.100000
vn 0.000000 0.000000 -0.100000
vn 0.000000 0.000000 -0.100000
vn 0.000000 0.000000 -0.100000
vn 0.000000 0.000000 -0.100000
vn 0.000000 0.000000 -0.100000
vn 0.000000 0.000000 -0.100000
vn 0.100000 0.000000 0.000000
vn 0.100000 0.000000 0.000000
vn 0.100000 0.000000 0.000000
vn 0.100000 0.000000 0.000000
vn 0.100000 0.000000 0.000000
vn 0.100000 0.000000 0.000000
vn 0.100000 0.000000 0.000000
vn 0.100000 0.000000 0.000000
vn 0.000000 -0.000000 0.100000
vn 0.000000 -0.000000 0.100000
vn 0.000000 -0.000000 0.100000
vn 0.000000 -0.000000 0.100000
vn 0.000000 -0.000000 0.100000
vn 0.000000 -0.000000 0.100000
vn 0.000000 -0.000000 0.100000
vn 0.000000 -0.000000 0.100000
vn -0.100000 0.000000 -0.000000
vn -0.100000 0.000000 -0.000000
vn -0.100000 0.000000 -0.000000
vn -0.100000 0.000000 -0.000000
vn -0.100000 0.000000 -0.000000
vn -0.100000 0.000000 -0.000000
vn -0.100000 0.000000 -0.000000
vn -0.100000 0.000000 -0.000000
vn -0.000000 0.000000 -0.100000
vn -0.000000 0.000000 -0.100000
vn -0.000000 0.000000 -0.100000
vn -0.000000 0.000000 -0.100000
vn -0.000000 0.000000 -0.100000
vn -0.000000 0.000000 -0.100000
vn -0.000000 0.000000 -0.100000
vn -0.000000 0.000000 -0.100000
vn -0.000000 0.000000 -0.100000
vn -0.000000 0.000000 -0.100000
vn -0.000000 0.000000 -0.100000
vn -0.000000 0.000000 -0.100000
vn -0.000000 0.000000 -0.100000
vn -0.000000 0.000000 -0.100000
vn -0.000000 0.000000 -0.100000
vn -0.000000 0.000000 -0.100000
usemtl Steel_-_Satin
f 1/1/1 2/2/2 4/3/3
f 4/3/3 2/2/2 3/4/4
f 5/5/5 1/6/6 6/7/7
f 6/7/7 1/6/6 4/8/8
f 7/9/9 5/10/10 8/11/11
f 8/11/11 5/10/10 6/12/12
f 2/13/13 7/14/14 3/15/15
f 3/15/15 7/14/14 8/16/16
f 9/17/17 10/18/18 12/19/19
f 12/19/19 10/18/18 11/20/20
f 13/21/21 9/22/22 14/23/23
f 14/23/23 9/22/22 12/24/24
f 15/25/25 16/26/26 18/27/27
f 18/27/27 16/26/26 17/28/28
f 19/29/29 15/30/30 20/31/31
f 20/31/31 15/30/30 18/32/32
f 20/33/33 24/34/34 19/35/35
f 19/35/35 24/34/34 21/36/36
f 19/35/35 21/36/36 16/37/37
f 16/37/37 21/36/36 17/38/38
f 17/38/38 21/36/36 22/39/39
f 17/38/38 22/39/39 23/40/40
f 24/34/34 20/33/33 23/40/40
f 23/40/40 20/33/33 17/38/38
f 25/41/41 26/42/42 28/43/43
f 28/43/43 26/42/42 27/44/44
f 29/45/45 25/46/46 30/47/47
f 30/47/47 25/46/46 28/48/48
f 26/49/49 31/50/50 27/51/51
f 27/51/51 31/50/50 32/52/52
f 34/53/53 31/54/54 35/55/55
f 35/55/55 31/54/54 26/56/56
f 35/55/55 26/56/56 38/57/57
f 38/57/57 26/56/56 23/58/58
f 38/57/57 23/58/58 37/59/59
f 37/59/59 23/58/58 36/60/60
f 36/60/60 23/58/58 34/53/53
f 36/60/60 34/53/53 35/55/55
f 23/58/58 26/56/56 24/61/61
f 24/61/61 26/56/56 25/62/62
f 24/61/61 25/62/62 40/63/63
f 40/63/63 25/62/62 39/64/64
f 39/64/64 25/62/62 29/65/65
f 39/64/64 29/65/65 33/66/66
f 39/64/64 33/66/66 42/67/67
f 42/67/67 33/66/66 24/61/61
f 42/67/67 24/61/61 41/68/68
f 41/68/68 24/61/61 40/63/63
f 42/69/69 41/70/70 44/71/71
f 44/71/71 41/70/70 43/72/72
f 39/73/73 42/74/74 45/75/75
f 45/75/75 42/74/74 44/76/76
f 40/77/77 39/78/78 46/79/79
f 46/79/79 39/78/78 45/80/80
f 41/81/81 40/82/82 43/83/83
f 43/83/83 40/82/82 46/84/84
f 38/85/85 37/86/86 48/87/87
f 48/87/87 37/86/86 47/88/88
f 35/89/89 38/90/90 49/91/91
f 49/91/91 38/90/90 48/92/92
f 36/93/93 35/94/94 50/95/95
f 50/95/95 35/94/94 49/96/96
f 37/97/97 36/98/98 47/99/99
f 47/99/99 36/98/98 50/100/100
f 34/101/101 51/102/102 31/103/103
f 31/103/103 51/102/102 52/104/104
f 31/103/103 52/104/104 29/105/105
f 29/105/105 52/104/104 33/106/106
f 30/107/107 32/108/108 29/105/105
f 29/105/105 32/108/108 31/103/103
f 54/109/109 55/110/110 53/111/111
f 53/111/111 55/110/110 56/112/112
f 33/113/113 52/114/114 24/115/115
f 24/115/115 52/114/114 21/116/116
f 51/117/117 34/118/118 22/119/119
f 22/119/119 34/118/118 23/120/120
f 7/121/121 51/122/122 5/123/123
f 5/123/123 51/122/122 22/124/124
f 5/123/123 22/124/124 1/125/125
f 1/125/125 22/124/124 2/126/126
f 2/126/126 22/124/124 21/127/127
f 2/126/126 21/127/127 7/121/121
f 7/121/121 21/127/127 52/128/128
f 7/121/121 52/128/128 51/122/122
f 16/129/129 54/130/130 19/131/131
f 19/131/131 54/130/130 10/132/132
f 19/131/131 10/132/132 9/133/133
f 15/134/134 9/133/133 16/129/129
f 16/129/129 9/133/133 13/135/135
f 16/129/129 13/135/135 55/136/136
f 9/133/133 15/134/134 19/131/131
f 55/136/136 54/130/130 16/129/129
f 6/137/137 56/138/138 8/139/139
f 8/139/139 56/138/138 55/140/140
f 8/139/139 55/140/140 13/141/141
f 56/138/138 6/137/137 14/142/142
f 14/142/142 6/137/137 4/143/143
f 14/142/142 4/143/143 3/144/144
f 14/142/142 3/144/144 13/141/141
f 13/141/141 3/144/144 8/139/139
f 12/145/145 11/146/146 20/147/147
f 20/147/147 11/146/146 53/148/148
f 20/147/147 53/148/148 56/149/149
f 20/147/147 56/149/149 17/150/150
f 17/150/150 56/149/149 14/151/151
f 17/150/150 14/151/151 12/145/145
f 20/147/147 18/152/152 12/145/145
f 12/145/145 18/152/152 17/150/150
f 30/153/153 54/154/154 32/155/155
f 32/155/155 54/154/154 53/156/156
f 32/155/155 53/156/156 49/157/157
f 49/157/157 53/156/156 50/158/158
f 50/158/158 53/156/156 11/159/159
f 50/158/158 11/159/159 47/160/160
f 47/160/160 11/159/159 48/161/161
f 48/161/161 11/159/159 27/162/162
f 48/161/161 27/162/162 49/157/157
f 49/157/157 27/162/162 32/155/155
f 54/154/154 30/153/153 45/163/163
f 45/163/163 30/153/153 28/164/164
f 45/163/163 28/164/164 46/165/165
f 46/165/165 28/164/164 10/166/166
f 46/165/165 10/166/166 43/167/167
f 43/167/167 10/166/166 44/168/168
f 44/168/168 10/166/166 54/154/154
f 44/168/168 54/154/154 45/163/163
f 28/164/164 27/162/162 10/166/166
f 10/166/166 27/162/162 11/159/159
# 56 vertices
# 168 texture params
# 168 normals
# 128 facets

# 1 groups
